<svg width="58" height="80" viewBox="0 0 58 80" fill="none" xmlns="http://www.w3.org/2000/svg">
<path d="M50.5165 0H7.48333C3.6048 0 0.446594 2.88688 0.446594 6.41125V73.5859C0.446594 77.1131 3.60497 80 7.48333 80H50.5165C54.3779 80 57.5534 77.1131 57.5534 73.5859V67.2738V63.4066V6.41125C57.5534 2.88688 54.3779 0 50.5165 0ZM28.9914 73.9656C27.8275 73.9656 26.8863 73.11 26.8863 72.0505C26.8863 70.9908 27.8273 70.1211 28.9914 70.1211C30.1571 70.1211 31.1137 70.9908 31.1137 72.0505C31.1137 73.1098 30.1569 73.9656 28.9914 73.9656ZM53.15 63.4066V66.1178H4.83456V10.9527H53.15V63.4066Z" fill="white"/>
<path d="M11.047 42.0206L15.1995 42.5687C15.4551 42.5872 15.6826 42.7331 15.7792 42.9541L17.1272 45.9047C17.2238 46.12 17.1815 46.3722 17.0148 46.5494L14.5357 49.5794C14.1416 49.9972 14.1648 50.6233 14.5948 51.0142L16.5599 52.7991C16.9882 53.19 17.674 53.2113 18.1415 52.8572L21.4667 50.602C21.6678 50.4505 21.9373 50.4067 22.1804 50.5L25.426 51.7169C25.6631 51.8147 25.8282 52.0156 25.8485 52.2481L26.4515 56.0219C26.4999 56.57 27.0063 56.9963 27.6123 56.9936L30.3891 56.9964C30.9953 56.9964 31.5001 56.5716 31.5482 56.022L32.1529 52.2509C32.1701 52.0158 32.3352 51.8119 32.5769 51.7197L35.818 50.4973C36.0579 50.4067 36.3337 50.4462 36.5285 50.602L39.8599 52.8545C40.3228 53.2114 41.0148 53.1902 41.4369 52.7992L43.4019 51.0186C43.8366 50.6234 43.86 49.9973 43.4657 49.5795L40.9881 46.548C40.8152 46.3681 40.7716 46.123 40.8728 45.902L42.2143 42.957C42.3172 42.7333 42.54 42.5873 42.8002 42.5689L46.9465 42.0236C47.5527 41.9767 48.0169 41.5178 48.0218 40.9669L48.0185 38.4425C48.017 37.8887 47.551 37.4355 46.945 37.3887L42.8 36.8434C42.5398 36.8236 42.3138 36.6777 42.2203 36.4553L40.8678 33.5045C40.7712 33.2892 40.8149 33.0372 40.9847 32.8602L43.4654 29.8302C43.8581 29.4122 43.8345 28.7889 43.4016 28.3966L41.4412 26.6131C41.0144 26.2222 40.3225 26.1981 39.8613 26.5566L36.5268 28.8103C36.3336 28.9605 36.0546 29.0044 35.8193 28.9122L32.5767 27.6869C32.3368 27.6033 32.173 27.3936 32.1513 27.1584L31.5482 23.3905C31.4986 22.8408 30.9936 22.413 30.3891 22.4158L27.6109 22.413C27.0063 22.4158 26.4967 22.838 26.4499 23.3877L25.8485 27.1586C25.8282 27.3937 25.6646 27.5978 25.426 27.6898L22.1788 28.9109C21.9404 29.0031 21.6677 28.9606 21.4667 28.8105L18.1353 26.5553C17.6755 26.1927 16.9884 26.2197 16.5583 26.6106L14.5948 28.3941C14.1663 28.7864 14.1383 29.4125 14.5342 29.8305L17.0133 32.8605C17.1814 33.0377 17.2281 33.2923 17.1222 33.5106L15.7839 36.4556C15.6809 36.6766 15.4551 36.8269 15.1979 36.8409L11.053 37.3892C10.4454 37.4359 9.97466 37.892 9.97947 38.443V40.9673C9.97964 41.5178 10.4487 41.9811 11.047 42.0206ZM23.4332 34.6447C24.9228 33.2961 26.8971 32.5495 29.0022 32.5495C31.1014 32.5495 33.0786 33.2961 34.5636 34.6447C36.0517 35.9961 36.8714 37.7966 36.8698 39.7033C36.8667 41.6155 36.0517 43.4159 34.5653 44.7617C33.0772 46.113 31.1015 46.8553 28.9993 46.8553C26.8942 46.8553 24.923 46.1131 23.435 44.7617C21.9516 43.4159 21.1273 41.6155 21.1335 39.7033C21.1287 37.7966 21.9482 35.9961 23.4332 34.6447Z" fill="white"/>
</svg>
