<svg width="76" height="100" viewBox="0 0 76 100" fill="none" xmlns="http://www.w3.org/2000/svg">
<path fill-rule="evenodd" clip-rule="evenodd" d="M26.7204 1.818C27.5018 0.97412 28.5616 0.5 29.6667 0.5H63C69.9037 0.5 75.5 6.54418 75.5 14V86C75.5 93.456 69.9037 99.5 63 99.5H13C6.09646 99.5 0.5 93.456 0.5 86V32C0.5 30.8065 0.939 29.6619 1.72038 28.818L26.7204 1.818ZM63 9.5H33.8333V32C33.8333 34.4853 31.9679 36.5 29.6667 36.5H8.83333V86C8.83333 88.4854 10.6988 90.5 13 90.5H63C65.3012 90.5 67.1667 88.4854 67.1667 86V14C67.1667 11.5147 65.3012 9.5 63 9.5ZM14.7259 27.5H25.5V15.8639L14.7259 27.5ZM17.1667 54.5C17.1667 52.0146 19.0322 50 21.3333 50H54.6667C56.9679 50 58.8333 52.0146 58.8333 54.5C58.8333 56.9854 56.9679 59 54.6667 59H21.3333C19.0322 59 17.1667 56.9854 17.1667 54.5ZM17.1667 72.5C17.1667 70.0146 19.0322 68 21.3333 68H54.6667C56.9679 68 58.8333 70.0146 58.8333 72.5C58.8333 74.9854 56.9679 77 54.6667 77H21.3333C19.0322 77 17.1667 74.9854 17.1667 72.5Z" fill="#AAAAAA"/>
</svg>
