<svg width="76" height="66" viewBox="0 0 76 66" fill="none" xmlns="http://www.w3.org/2000/svg">
<path d="M63.5 26.875C63.5 27.2811 63.3419 27.6706 63.0606 27.9577C62.7793 28.2449 62.3978 28.4062 62 28.4062H47C46.6022 28.4062 46.2206 28.2449 45.9393 27.9578C45.658 27.6706 45.5 27.2811 45.5 26.875C45.5 26.4689 45.658 26.0794 45.9393 25.7922C46.2206 25.5051 46.6022 25.3438 47 25.3438H62C62.3978 25.3438 62.7793 25.5051 63.0606 25.7923C63.3419 26.0794 63.5 26.4689 63.5 26.875ZM62 37.5938H47C46.6022 37.5938 46.2206 37.7551 45.9393 38.0422C45.658 38.3294 45.5 38.7189 45.5 39.125C45.5 39.5311 45.658 39.9206 45.9393 40.2078C46.2206 40.4949 46.6022 40.6562 47 40.6562H62C62.3978 40.6562 62.7794 40.4949 63.0607 40.2078C63.342 39.9206 63.5 39.5311 63.5 39.125C63.5 38.7189 63.342 38.3294 63.0607 38.0422C62.7794 37.7551 62.3978 37.5938 62 37.5938ZM37.612 47.9297C37.7112 48.323 37.6533 48.7404 37.4511 49.0901C37.2488 49.4398 36.9188 49.6931 36.5335 49.7944C36.1483 49.8957 35.7394 49.8366 35.3968 49.6301C35.0542 49.4236 34.8061 49.0867 34.7068 48.6934C34.1238 46.3928 32.8087 44.3551 30.968 42.9003C29.1272 41.4455 26.8653 40.6562 24.5374 40.6562C22.2095 40.6563 19.9476 41.4458 18.107 42.9006C16.2664 44.3555 14.9513 46.3933 14.3684 48.694C14.3193 48.8887 14.2331 49.0717 14.1147 49.2324C13.9964 49.3931 13.8482 49.5285 13.6786 49.6307C13.336 49.8372 12.9272 49.8964 12.5419 49.7952C12.1567 49.6939 11.8266 49.4406 11.6243 49.0909C11.422 48.7413 11.3641 48.3239 11.4633 47.9306C11.9582 45.9676 12.8719 44.1404 14.139 42.5799C15.4062 41.0193 16.9955 39.7638 18.7933 38.9032C16.9001 37.6401 15.457 35.7866 14.6788 33.6187C13.9007 31.4508 13.829 29.0843 14.4746 26.8715C15.1201 24.6587 16.4483 22.7178 18.2616 21.3377C20.0748 19.9577 22.2761 19.2121 24.5378 19.2121C26.7995 19.2122 29.0008 19.9577 30.814 21.3378C32.6272 22.7179 33.9555 24.6588 34.601 26.8716C35.2465 29.0844 35.1748 31.4509 34.3967 33.6188C33.6185 35.7867 32.1754 37.6401 30.2821 38.9033C32.0798 39.7638 33.6689 41.0191 34.9361 42.5795C36.2032 44.1399 37.117 45.9669 37.612 47.9297ZM24.5377 37.5938C26.0211 37.5938 27.4711 37.1447 28.7045 36.3034C29.9379 35.4622 30.8992 34.2664 31.4668 32.8674C32.0345 31.4684 32.183 29.929 31.8936 28.4438C31.6042 26.9587 30.8899 25.5945 29.841 24.5237C28.7921 23.453 27.4558 22.7238 26.0009 22.4284C24.546 22.1329 23.038 22.2846 21.6676 22.864C20.2971 23.4435 19.1258 24.4249 18.3017 25.6839C17.4776 26.943 17.0377 28.4232 17.0377 29.9375C17.04 31.9674 17.8309 33.9134 19.2369 35.3487C20.643 36.784 22.5493 37.5914 24.5377 37.5938ZM75.5 5.4375V60.5625C75.4986 61.7804 75.0241 62.948 74.1805 63.8092C73.3369 64.6704 72.1931 65.1549 71 65.1562H5C3.80694 65.1549 2.66314 64.6704 1.81953 63.8092C0.975909 62.948 0.501365 61.7804 0.5 60.5625V5.4375C0.501365 4.21959 0.975909 3.05196 1.81953 2.19077C2.66314 1.32957 3.80694 0.845143 5 0.84375H71C72.1931 0.845143 73.3369 1.32957 74.1805 2.19077C75.0241 3.05196 75.4986 4.21959 75.5 5.4375ZM72.5 5.4375C72.4995 5.03153 72.3414 4.64232 72.0602 4.35526C71.779 4.06819 71.3977 3.90671 71 3.90625H5C4.60231 3.90671 4.22105 4.06819 3.93984 4.35526C3.65864 4.64232 3.50045 5.03153 3.5 5.4375V60.5625C3.50045 60.9685 3.65864 61.3577 3.93984 61.6447C4.22105 61.9318 4.60231 62.0933 5 62.0938H71C71.3977 62.0933 71.779 61.9318 72.0602 61.6447C72.3414 61.3577 72.4995 60.9685 72.5 60.5625V5.4375Z" fill="#AAAAAA"/>
</svg>
