<svg width="78" height="92" viewBox="0 0 78 92" fill="none" xmlns="http://www.w3.org/2000/svg">
<path d="M24.2437 12.1454C24.2437 9.52452 26.3856 7.38264 29.0349 7.38264C31.6842 7.38264 33.8261 9.49648 33.8261 12.1454C33.8261 14.7664 31.6842 16.9082 29.0349 16.9082C26.3856 16.9082 24.2437 14.7664 24.2437 12.1454ZM33.9105 18.4866C33.3751 17.9792 32.7551 17.641 31.8531 17.641H29.0349H26.1319C25.2298 17.641 24.6663 17.9792 24.1309 18.4866L17.7333 24.8842C15.986 26.6315 18.3532 28.8582 20.1008 27.1389L23.962 23.2498V26.8856H29.0069H34.0234V23.2214L38.0254 27.1953C39.6318 28.8862 42.0554 26.6318 40.3929 24.9406L33.9105 18.4866ZM34.0234 28.7734L30.2467 32.5781L33.0369 35.3683L30.1903 38.2149C28.4994 39.9057 30.8386 42.3013 32.5578 40.554L37.0673 35.8757C38.0538 34.8892 38.3075 33.0575 37.2646 32.0146L34.0234 28.7734ZM24.9765 35.3402L27.7667 32.55L23.99 28.7734L20.7208 32.0146C19.6779 33.0575 19.96 34.8892 20.9181 35.8757L25.4275 40.554C27.1748 42.3013 29.4859 39.8777 27.8231 38.2149L24.9765 35.3402ZM73.7394 37.0853V46C73.7394 46.9196 73.0317 47.6273 72.1121 47.6273C71.1925 47.6273 70.4849 46.9196 70.4849 46V33.0524C70.4849 32.4864 70.4141 31.9912 70.1312 31.496C69.636 30.2932 68.504 29.3735 67.2304 29.0903C67.018 29.0195 66.6643 29.0195 66.452 29.0195V44.3727C66.452 45.2924 65.7443 46 64.8247 46C63.9051 46 63.1974 45.2924 63.1974 44.3727V24.9866C63.1974 24.5622 63.1267 24.279 63.0559 23.9254C62.9851 23.501 62.7022 23.147 62.4898 22.7226C62.1362 22.2981 61.853 21.9442 61.3578 21.5905C61.0042 21.3781 60.5794 21.1661 60.155 21.0245C59.9426 21.0245 59.589 20.9537 59.1645 20.9537C58.9522 20.9537 58.5985 20.9537 58.3861 21.0245V0.71875H0.157318V68.6406H44.6602C46.1458 72.7443 49.4007 75.9988 53.5748 77.5553V91.2812H77.8427V41.1183C77.7723 38.8542 76.0034 37.0853 73.7394 37.0853ZM53.504 54.9147C52.5844 54.9147 51.8768 54.207 51.8768 53.2874V38.7126C51.8768 36.4485 50.1079 34.6797 47.8439 34.6797C45.334 34.6797 43.811 36.5527 43.811 38.7385V44.4435H11.4776V47.698H43.8113V52.5798H11.4776V55.8343H43.8113V63.9001C43.8113 64.4661 43.8821 64.9613 43.8821 65.5274H3.34102V3.97325H55.0608V24.9866V53.2874H55.1316C55.1316 54.2074 54.424 54.9147 53.504 54.9147Z" fill="#AAAAAA"/>
</svg>
