<svg width="88" height="80" viewBox="0 0 88 80" fill="none" xmlns="http://www.w3.org/2000/svg">
<path d="M50.9914 52.9662H46.9828V49.322C46.9828 47.8244 45.6471 46.6101 43.9997 46.6101C42.3523 46.6101 41.0166 47.8244 41.0166 49.322V52.9662H37.008C35.3606 52.9662 34.0249 54.1805 34.0249 55.6781C34.0249 57.1758 35.3606 58.39 37.008 58.39H41.0166V62.0342C41.0166 63.5319 42.3523 64.7461 43.9997 64.7461C45.6471 64.7461 46.9828 63.5319 46.9828 62.0342V58.39H50.9914C52.6388 58.39 53.9745 57.1758 53.9745 55.6781C53.9745 54.1805 52.6388 52.9662 50.9914 52.9662Z" fill="white"/>
<path d="M74.659 13.983H67.4916V10.1034C67.4916 4.53226 62.5061 0 56.3775 0H31.6222C25.4939 0 20.5084 4.53226 20.5084 10.1034V13.983H13.341C5.98489 13.983 0 19.4238 0 26.1112V68.2484C0 74.7284 5.79882 80 12.9265 80H75.0732C82.2012 80 88 74.7284 88 68.2484V26.1112C88 19.4238 82.0151 13.983 74.659 13.983ZM26.4747 10.1034C26.4747 7.52296 28.784 5.42357 31.6225 5.42357H56.3778C59.2163 5.42357 61.5256 7.52296 61.5256 10.1034V13.983H26.4747V10.1034ZM13.341 19.4069H74.659C78.7253 19.4069 82.0338 22.4145 82.0338 26.1112V27.9661H5.96622V26.1112C5.96622 22.4145 9.27467 19.4069 13.341 19.4069ZM62.3644 33.3899H66.6525V37.2881H62.3644V33.3899ZM21.3476 33.3899H25.6356V37.2881H21.3476V33.3899ZM82.0338 68.2484C82.0338 71.7374 78.9111 74.5762 75.0732 74.5762H12.9265C9.08859 74.5762 5.96622 71.7374 5.96622 68.2484V33.3899H15.3813V40C15.3813 41.4977 16.717 42.7119 18.3644 42.7119H28.6187C30.2661 42.7119 31.6018 41.4977 31.6018 40V33.3899H56.3985V40C56.3985 41.4977 57.7342 42.7119 59.3816 42.7119H69.6359C71.2833 42.7119 72.619 41.4977 72.619 40V33.3899H82.0341L82.0338 68.2484Z" fill="white"/>
</svg>
