<svg width="568" height="172" viewBox="0 0 568 172" fill="none" xmlns="http://www.w3.org/2000/svg">
<path d="M73.5962 77.0151C74.2488 76.0985 74.7914 75.3374 75.2741 74.686C75.6824 75.3847 76.1381 76.1989 76.6865 77.1793L89.1574 99.4647C90.3678 101.63 91.5556 103.753 92.7478 105.293C94.0238 106.942 96.2668 109.201 99.8623 109.268C103.457 109.334 105.785 107.16 107.123 105.559C108.374 104.064 109.641 101.985 110.934 99.8668L111.338 99.2053C112.948 96.5672 113.961 94.9189 114.858 93.7278C115.685 92.6299 116.163 92.2723 116.519 92.0737C116.875 91.8752 117.434 91.6574 118.816 91.5255C120.317 91.3822 122.277 91.3757 125.406 91.3757H131.25C134.27 91.3757 136.719 88.9699 136.719 86.0007C136.719 83.0323 134.27 80.6257 131.25 80.6257H125.17C122.348 80.6257 119.851 80.6257 117.758 80.8257C115.489 81.0421 113.281 81.5223 111.13 82.7191C108.979 83.9159 107.424 85.5306 106.068 87.3309C104.817 88.9921 103.533 91.0962 102.08 93.4756L101.734 94.0432C101.102 95.0787 100.574 95.9416 100.103 96.6826C99.6596 95.9251 99.1659 95.0429 98.5731 93.9844L86.1087 71.7097C84.9851 69.7003 83.8651 67.6984 82.7298 66.2308C81.4888 64.6274 79.3618 62.5075 75.9529 62.3266C72.5438 62.1457 70.1967 64.0282 68.7876 65.4909C67.4977 66.8298 66.1653 68.7017 64.8279 70.5805L62.5721 73.7479C60.9158 76.0734 59.8773 77.5226 58.9785 78.5675C58.151 79.5299 57.6912 79.8445 57.3517 80.0187C57.0122 80.1921 56.4858 80.382 55.2095 80.4967C53.823 80.6207 52.0197 80.6257 49.1315 80.6257H43.75C40.7297 80.6257 38.2812 83.0323 38.2812 86.0007C38.2812 88.9699 40.7297 91.3757 43.75 91.3757H49.3509C51.9538 91.3764 54.2612 91.3764 56.2042 91.2016C58.312 91.0124 60.368 90.5946 62.4027 89.5532C64.4375 88.5126 65.9649 87.0965 67.3312 85.5077C68.591 84.0435 69.914 82.1852 71.4066 80.0896L73.5962 77.0151Z" fill="url(#paint0_linear_84_2)"/>
<path fill-rule="evenodd" clip-rule="evenodd" d="M165.885 66.3664C165.885 43.5682 155.005 25.846 138.363 19.0414C122.836 12.6927 104.083 16.5518 87.5 31.7968C70.9164 16.5518 52.1635 12.6931 36.6367 19.042C19.995 25.8467 9.11456 43.569 9.11456 66.3666C9.11456 81.6018 17.3488 96.6024 27.6077 109.525C37.9703 122.578 51.0075 134.267 61.8898 142.989L62.8722 143.778C71.6211 150.8 77.9443 155.875 87.5 155.875C97.0557 155.875 103.379 150.8 112.128 143.778L113.11 142.989C123.993 134.267 137.029 122.579 147.392 109.525C157.651 96.6024 165.885 81.6018 165.885 66.3664ZM91.5038 43.0694C106.802 26.9095 122.697 24.279 134.162 28.9667C145.776 33.7154 154.948 46.8018 154.948 66.3664C154.948 77.9891 148.528 90.6196 138.769 102.912C129.114 115.074 116.77 126.185 106.198 134.658C96.0407 142.799 92.7616 145.125 87.5 145.125C82.239 145.125 78.9593 142.799 68.802 134.658C58.2301 126.185 45.8859 115.074 36.2309 102.912C26.472 90.6189 20.0521 77.9884 20.0521 66.3666C20.0521 46.8026 29.2242 33.7161 40.8381 28.9672C52.3029 24.2793 68.1978 26.9095 83.4961 43.0694C84.5308 44.1623 85.9811 44.7831 87.5 44.7831C89.0188 44.7831 90.4691 44.1623 91.5038 43.0694Z" fill="url(#paint1_linear_84_2)"/>
<path d="M205.672 105V60.2H213.992V97.96H237.416V105H205.672ZM243.985 105V60.2H252.305V105H243.985ZM272.038 80.808H294.374V87.848H272.038V80.808ZM272.742 105H264.422V60.2H297.126V67.176H272.742V105ZM312.852 78.824H335.124V85.672H312.852V78.824ZM313.492 98.024H338.772V105H305.172V60.2H337.876V67.176H313.492V98.024ZM348.047 105V60.2H369.039C374.415 60.2 378.511 61.2667 381.327 63.4C384.143 65.4907 385.551 68.3067 385.551 71.848C385.551 74.2373 384.997 76.2853 383.887 77.992C382.778 79.656 381.285 80.9573 379.407 81.896C377.573 82.792 375.567 83.24 373.391 83.24L374.543 80.936C377.061 80.936 379.322 81.4053 381.327 82.344C383.333 83.24 384.911 84.5627 386.063 86.312C387.258 88.0613 387.855 90.2373 387.855 92.84C387.855 96.68 386.383 99.6667 383.439 101.8C380.495 103.933 376.122 105 370.319 105H348.047ZM356.367 98.472H369.807C372.922 98.472 375.311 97.96 376.975 96.936C378.639 95.912 379.471 94.2693 379.471 92.008C379.471 89.7893 378.639 88.168 376.975 87.144C375.311 86.0773 372.922 85.544 369.807 85.544H355.727V79.08H368.143C371.045 79.08 373.263 78.568 374.799 77.544C376.378 76.52 377.167 74.984 377.167 72.936C377.167 70.8453 376.378 69.288 374.799 68.264C373.263 67.24 371.045 66.728 368.143 66.728H356.367V98.472ZM390.399 105L410.559 60.2H418.751L438.975 105H430.271L412.927 64.616H416.255L398.975 105H390.399ZM399.679 94.632L401.919 88.104H426.111L428.351 94.632H399.679ZM444.672 105V60.2H451.52L479.616 94.696H476.224V60.2H484.48V105H477.632L449.536 70.504H452.928V105H444.672ZM496.485 105V60.2H516.069C520.933 60.2 525.199 61.1387 528.869 63.016C532.538 64.8933 535.397 67.496 537.445 70.824C539.493 74.152 540.517 78.0773 540.517 82.6C540.517 87.08 539.493 91.0053 537.445 94.376C535.397 97.704 532.538 100.307 528.869 102.184C525.199 104.061 520.933 105 516.069 105H496.485ZM504.805 97.96H515.685C519.055 97.96 521.957 97.32 524.389 96.04C526.863 94.76 528.762 92.968 530.085 90.664C531.45 88.36 532.133 85.672 532.133 82.6C532.133 79.4853 531.45 76.7973 530.085 74.536C528.762 72.232 526.863 70.44 524.389 69.16C521.957 67.88 519.055 67.24 515.685 67.24H504.805V97.96Z" fill="url(#paint2_linear_84_2)"/>
<defs>
<linearGradient id="paint0_linear_84_2" x1="87.5" y1="62.3145" x2="87.5" y2="109.269" gradientUnits="userSpaceOnUse">
<stop offset="0.0677083" stop-color="#EDCD9C"/>
<stop offset="0.338542" stop-color="#BFD1D2"/>
<stop offset="0.630208" stop-color="#F1AAA6"/>
<stop offset="0.911458" stop-color="#D7D2CC"/>
</linearGradient>
<linearGradient id="paint1_linear_84_2" x1="87.5" y1="16.1145" x2="87.5" y2="155.875" gradientUnits="userSpaceOnUse">
<stop offset="0.0677083" stop-color="#EDCD9C"/>
<stop offset="0.338542" stop-color="#BFD1D2"/>
<stop offset="0.630208" stop-color="#F1AAA6"/>
<stop offset="0.911458" stop-color="#D7D2CC"/>
</linearGradient>
<linearGradient id="paint2_linear_84_2" x1="232.5" y1="129" x2="490.5" y2="129" gradientUnits="userSpaceOnUse">
<stop stop-color="#D7D2CC"/>
<stop offset="0.347319" stop-color="#F1AAA6"/>
<stop offset="0.743734" stop-color="#BFD1D2"/>
<stop offset="1" stop-color="#EDCD9C"/>
</linearGradient>
</defs>
</svg>
