<svg width="88" height="80" viewBox="0 0 88 80" fill="none" xmlns="http://www.w3.org/2000/svg">
<path fill-rule="evenodd" clip-rule="evenodd" d="M44 39.9999C34.2474 39.9999 26.3162 32.8239 26.3162 23.9999C26.3162 15.1759 34.2474 7.99994 44 7.99994C53.7526 7.99994 61.6838 15.1759 61.6838 23.9999C61.6838 32.8239 53.7526 39.9999 44 39.9999ZM60.6139 42.6918C67.63 37.5838 71.7194 29.3237 70.2163 20.2797C68.47 9.78772 58.8235 1.39191 47.1787 0.167907C31.1085 -1.52409 17.4743 9.79594 17.4743 23.9999C17.4743 31.5599 21.3471 38.2958 27.3861 42.6918C12.5494 47.7358 1.71804 59.5799 0.0203899 75.5639C-0.227181 77.9279 1.8109 79.9999 4.43694 79.9999C6.6872 79.9999 8.60591 78.464 8.80485 76.436C10.5776 58.584 25.684 47.9999 44 47.9999C62.316 47.9999 77.4224 58.584 79.1952 76.436C79.3941 78.464 81.3128 79.9999 83.5631 79.9999C86.1891 79.9999 88.2272 77.9279 87.9796 75.5639C86.282 59.5799 75.4507 47.7358 60.6139 42.6918Z" fill="white"/>
</svg>
